<svg xmlns="http://www.w3.org/2000/svg" width="1600" height="1200" viewBox="0 0 1600 1200" role="img" aria-labelledby="title desc">
  <title id="title">Fiorana at Beaumont Estate Phase 1 RERA data cover</title><desc id="desc">A branded data cover for a newly approved Karnataka RERA luxury project.</desc>
  <defs><linearGradient id="bg" x1="0" y1="0" x2="1" y2="1"><stop stop-color="#06152a"/><stop offset=".58" stop-color="#10213f"/><stop offset="1" stop-color="#3f2844"/></linearGradient><radialGradient id="glow" cx="80%" cy="20%" r="70%"><stop stop-color="#d8a6da" stop-opacity=".28"/><stop offset="1" stop-color="#d8a6da" stop-opacity="0"/></radialGradient><pattern id="grid" width="72" height="72" patternUnits="userSpaceOnUse"><path d="M72 0H0V72" fill="none" stroke="#fff" stroke-opacity=".045"/></pattern></defs>
  <rect width="1600" height="1200" fill="url(#bg)"/><rect width="1600" height="1200" fill="url(#glow)"/><rect width="1600" height="1200" fill="url(#grid)"/>
  <g fill="none" stroke="#e7c4e6" stroke-width="3" opacity=".38"><path d="M905 930V380l120-90 120 90v550M1168 930V280h155v650M1350 930V470h120v460"/><path d="M875 930h630M955 470h140M955 550h140M1208 365h75M1208 455h75M1380 550h60M1380 630h60"/></g>
  <g font-family="Montserrat, Arial, sans-serif"><rect x="94" y="86" width="408" height="54" rx="27" fill="#c9a227" fill-opacity=".14" stroke="#e4c462" stroke-opacity=".65"/><text x="124" y="122" font-size="22" font-weight="700" letter-spacing="3" fill="#f0d477">NEW RERA APPROVAL</text><text x="94" y="238" font-size="28" font-weight="700" letter-spacing="5" fill="#e4c462">LODHA</text><text x="94" y="340" font-size="62" font-weight="700" fill="#fff">Fiorana at</text><text x="94" y="414" font-size="62" font-weight="700" fill="#fff">Beaumont Estate</text><text x="94" y="458" font-size="22" font-weight="700" letter-spacing="4" fill="#e7c4e6">PHASE 1 · AIRPORT ROAD</text><line x1="94" y1="515" x2="760" y2="515" stroke="#c9a227" stroke-width="3"/><text x="94" y="588" font-size="24" font-weight="700" fill="#e4c462">RERA-FIRST PROJECT PROFILE</text><text x="94" y="638" font-size="25" fill="#fff" fill-opacity=".72">2–4 BHK &amp; penthouses · 11.66 acres</text><text x="94" y="682" font-size="25" fill="#fff" fill-opacity=".72">540 filed homes · 5 towers</text><text x="94" y="726" font-size="25" fill="#fff" fill-opacity=".72">Approved 20 Jul 2026</text><rect x="94" y="822" width="590" height="104" rx="22" fill="#fff" fill-opacity=".06" stroke="#fff" stroke-opacity=".13"/><text x="126" y="864" font-size="18" font-weight="700" letter-spacing="2" fill="#e4c462">OFFICIAL FILING REVIEWED</text><text x="126" y="901" font-size="19" fill="#fff" fill-opacity=".62">Carpet area · UDS · phase plans · completion</text><text x="94" y="1094" font-size="18" letter-spacing="3" fill="#fff" fill-opacity=".48">ASHER REALTY · EVIDENCE BEFORE MARKETING</text></g>
</svg>
